<?xml version="1.0"?>
<svg xmlns="http://www.w3.org/2000/svg" height="512px" viewBox="0 0 512 512.00013" width="512px"><path d="m302.003906 0c-115.792968 0-209.996094 94.203125-209.996094 209.996094 0 52.507812 19.375 100.578125 51.347657 137.4375l-26.40625 26.40625-10.605469-10.601563c-5.855469-5.855469-15.355469-5.859375-21.210938 0l-71.941406 71.9375c-17.585937 17.585938-17.589844 46.046875 0 63.636719 17.578125 17.582031 46.042969 17.585938 63.632813 0l71.941406-71.941406c5.855469-5.851563 5.859375-15.355469 0-21.210938l-10.605469-10.605468 26.40625-26.410157c36.859375 31.972657 84.929688 51.347657 137.4375 51.347657 115.792969 0 209.996094-94.203126 209.996094-209.996094 0-115.792969-94.203125-209.996094-209.996094-209.996094zm-246.394531 477.597656c-5.859375 5.859375-15.34375 5.863282-21.207031 0-5.859375-5.859375-5.863282-15.34375 0-21.207031l61.335937-61.335937 21.207031 21.210937zm246.394531-87.605468c-49.570312 0-94.527344-20.144532-127.113281-52.675782-.035156-.035156-.0625-.074218-.097656-.109375-.035157-.035156-.074219-.0625-.109375-.097656-32.53125-32.585937-52.675782-77.539063-52.675782-127.113281 0-99.25 80.746094-179.996094 179.996094-179.996094s179.996094 80.746094 179.996094 179.996094-80.746094 179.996094-179.996094 179.996094zm0 0" fill="#006DF0"/><path d="m302.003906 60c-82.707031 0-149.996094 67.289062-149.996094 149.996094 0 82.707031 67.289063 149.996094 149.996094 149.996094 82.707032 0 149.996094-67.289063 149.996094-149.996094 0-82.707032-67.289062-149.996094-149.996094-149.996094zm0 269.992188c-66.167968 0-119.996094-53.828126-119.996094-119.996094 0-66.167969 53.828126-119.996094 119.996094-119.996094 66.167969 0 119.996094 53.828125 119.996094 119.996094 0 66.167968-53.828125 119.996094-119.996094 119.996094zm0 0" fill="#006DF0"/><path d="m368.578125 271.515625c-13.34375-6.511719-28.496094-15.429687-42.78125-25.5625 24.039063-22.683594 36.207031-44.824219 36.207031-65.957031 0-33.082032-26.917968-60-60-60-33.082031 0-60 26.917968-60 60 0 21.132812 12.167969 43.273437 36.207032 65.957031-14.285157 10.132813-29.4375 19.050781-42.78125 25.5625-7.445313 3.628906-10.539063 12.609375-6.90625 20.054687 3.632812 7.445313 12.613281 10.539063 20.058593 6.90625 14.09375-6.875 34.285157-18.558593 53.421875-32.757812 19.140625 14.199219 39.332032 25.882812 53.425782 32.757812 7.445312 3.632813 16.421874.539063 20.054687-6.90625 3.632813-7.445312.542969-16.425781-6.90625-20.054687zm-96.574219-91.519531c0-16.542969 13.457032-30 30-30 16.542969 0 30 13.457031 30 30 0 14.433594-12.542968 31.242187-30 47.027344-17.457031-15.785157-30-32.59375-30-47.027344zm0 0" fill="#006DF0"/></svg>
