<?xml version="1.0"?>
<svg xmlns="http://www.w3.org/2000/svg" height="512px" viewBox="0 0 512 512" width="512px"><path d="m436 151c-41.351562 0-75 33.648438-75 75 0 36.214844 25.808594 66.511719 60 73.480469v73.769531c0 59.972656-48.777344 108.75-108.75 108.75-64.101562 0-116.25-53.148438-116.25-117.25v-14.429688l60.132812-95.964843c61.792969-28.539063 104.867188-91.9375 104.867188-164.355469v-45c0-8.289062-6.710938-15-15-15h-45v-15c0-8.289062-6.710938-15-15-15s-15 6.710938-15 15v60c0 8.289062 6.710938 15 15 15s15-6.710938 15-15v-15h30v30c0 82.703125-67.296875 151-150 151s-151-68.296875-151-151v-30h30v15c0 8.289062 6.710938 15 15 15s15-6.710938 15-15v-60c0-8.289062-6.710938-15-15-15s-15 6.710938-15 15v15h-45c-8.289062 0-15 6.710938-15 15v45c0 72.417969 44.074219 135.816406 105.867188 164.355469l60.132812 95.964843v14.429688c0 80.640625 65.609375 147.25 146.25 147.25 76.507812 0 138.75-62.242188 138.75-138.75v-73.769531c34.191406-6.96875 61-37.265625 61-73.480469 0-41.351562-34.648438-75-76-75zm-255 120c10.621094 0 20.972656-1.105469 31.09375-2.878906l-31.09375 49.636718-31.09375-49.632812c10.121094 1.769531 20.472656 2.875 31.09375 2.875zm255-30c-8.285156 0-15-6.714844-15-15s6.714844-15 15-15 15 6.714844 15 15-6.714844 15-15 15zm0 0" fill="#006DF0"/></svg>
