<?xml version="1.0"?>
<svg xmlns="http://www.w3.org/2000/svg" height="512px" viewBox="-48 0 480 480.15268" width="512px"><path d="m64.078125 216.074219c0-4.421875-3.582031-8-8-8h-40v-56c0-4.421875-3.582031-8-8-8-4.421875 0-8 3.578125-8 8v64c0 4.417969 3.578125 8 8 8h48c4.417969 0 8-3.582031 8-8zm0 0" fill="#006DF0"/><path d="m136.078125 160.074219c4.417969 0 8-3.582031 8-8 0-4.421875-3.582031-8-8-8h-48c-4.421875 0-8 3.578125-8 8v64c0 4.417969 3.578125 8 8 8h48c4.417969 0 8-3.582031 8-8 0-4.421875-3.582031-8-8-8h-40v-16h40c4.417969 0 8-3.582031 8-8 0-4.421875-3.582031-8-8-8h-40v-16zm0 0" fill="#006DF0"/><path d="m216.078125 224.074219c4.417969 0 8-3.582031 8-8v-64c0-4.421875-3.582031-8-8-8h-48c-4.421875 0-8 3.578125-8 8v64c0 4.417969 3.578125 8 8 8 4.417969 0 8-3.582031 8-8v-24h32v24c0 4.417969 3.578125 8 8 8zm-40-48v-16h32v16zm0 0" fill="#006DF0"/><path d="m304.078125 184.074219v-32c0-4.421875-3.582031-8-8-8h-48c-4.421875 0-8 3.578125-8 8v64c0 4.417969 3.578125 8 8 8 4.417969 0 8-3.582031 8-8v-24h4.6875l29.65625 29.652343c3.136719 3.035157 8.128906 2.992188 11.214844-.09375 3.085937-3.085937 3.128906-8.078124.09375-11.214843l-18.34375-18.34375h12.691406c4.417969 0 8-3.582031 8-8zm-16-8h-32v-16h32zm0 0" fill="#006DF0"/><path d="m376.078125 144.074219c-4.421875 0-8 3.578125-8 8v40l-33.601563-44.800781c-2.066406-2.753907-5.664062-3.878907-8.929687-2.789063-3.265625 1.085937-5.46875 4.144531-5.46875 7.589844v64c0 4.417969 3.578125 8 8 8 4.417969 0 8-3.582031 8-8v-40l33.597656 44.796875c1.511719 2.015625 3.882813 3.203125 6.402344 3.203125.859375-.003907 1.714844-.140625 2.535156-.410157 3.265625-1.089843 5.464844-4.148437 5.464844-7.589843v-64c0-4.421875-3.582031-8-8-8zm0 0" fill="#006DF0"/><path d="m232.078125 120.074219c0 4.417969 3.578125 8 8 8 4.417969 0 8-3.582031 8-8-.007813-9.464844-5.574219-18.039063-14.210937-21.898438-8.640626-3.859375-18.738282-2.28125-25.789063 4.023438-9.105469-8.167969-22.898437-8.167969-32 0-7.054687-6.304688-17.152344-7.882813-25.792969-4.023438-8.636718 3.859375-14.203125 12.433594-14.207031 21.898438 0 4.417969 3.578125 8 8 8 4.417969 0 8-3.582031 8-8 0-4.421875 3.578125-8 8-8 4.417969 0 8 3.578125 8 8 0 4.417969 3.578125 8 8 8 4.417969 0 8-3.582031 8-8 0-4.421875 3.578125-8 8-8 4.417969 0 8 3.578125 8 8 0 4.417969 3.578125 8 8 8 4.417969 0 8-3.582031 8-8 0-4.421875 3.578125-8 8-8 4.417969 0 8 3.578125 8 8zm0 0" fill="#006DF0"/><path d="m41.835938 135.894531c4.320312.925781 8.574218-1.828125 9.496093-6.148437 14.335938-66.265625 72.949219-113.554688 140.746094-113.554688 67.792969 0 126.40625 47.289063 140.742187 113.554688.527344 2.863281 2.570313 5.214844 5.332032 6.136718 2.761718.921876 5.808594.273438 7.953125-1.699218 2.140625-1.972656 3.042969-4.953125 2.355469-7.78125-15.820313-73.734375-80.988282-126.402344-156.402344-126.402344-75.410156 0-140.578125 52.667969-156.398438 126.402344-.441406 2.078125-.039062 4.246094 1.117188 6.027344 1.160156 1.78125 2.980468 3.027343 5.058594 3.464843zm0 0" fill="#006DF0"/><path d="m325.4375 233.28125c-3.75-2.335938-8.679688-1.1875-11.015625 2.558594-10.113281 16.285156-23.367187 30.390625-38.984375 41.503906-2.109375 1.5-3.359375 3.925781-3.359375 6.511719v28.21875c0 13.253906-10.746094 24-24 24h-8v-88c0-4.421875-3.582031-8-8-8-4.421875 0-8 3.578125-8 8v88h-64v-88c0-4.421875-3.582031-8-8-8-4.421875 0-8 3.578125-8 8v88h-8c-13.257813 0-24-10.746094-24-24v-28.21875c-.003906-2.585938-1.253906-5.011719-3.363281-6.511719-15.613282-11.113281-28.863282-25.21875-38.972656-41.503906-2.339844-3.753906-7.277344-4.90625-11.035157-2.566406-3.753906 2.335937-4.902343 7.277343-2.566406 11.03125 10.492187 16.886718 24.035156 31.675781 39.9375 43.609374v24.160157c.027344 8.683593 2.910156 17.113281 8.207031 24h-.207031c-9.488281-.042969-18.097656 5.527343-21.949219 14.195312-3.847656 8.671875-2.203125 18.796875 4.1875 25.804688-6.390625 7.003906-8.035156 17.128906-4.1875 25.800781 3.851563 8.667969 12.460938 14.238281 21.949219 14.199219h9.597656c7.570313 37.285156 40.355469 64.078125 78.402344 64.078125 38.042969 0 70.828125-26.792969 78.398437-64.078125h9.601563c9.484375.039062 18.09375-5.53125 21.945313-14.199219 3.847656-8.671875 2.207031-18.796875-4.1875-25.800781 6.394531-7.007813 8.035156-17.132813 4.1875-25.804688-3.851563-8.667969-12.460938-14.238281-21.945313-14.195312h-.203125c5.289062-6.886719 8.171875-15.320313 8.203125-24v-24.160157c15.894531-11.9375 29.429687-26.722656 39.917969-43.609374 2.339844-3.75 1.191406-8.6875-2.558594-11.023438zm-133.359375 230.792969c-29.175781.023437-54.65625-19.738281-61.890625-48h123.785156c-7.238281 28.265625-32.71875 48.023437-61.894531 48zm88-64h-176c-4.421875 0-8-3.582031-8-8 0-4.421875 3.578125-8 8-8h176c4.417969 0 8 3.578125 8 8 0 4.417969-3.582031 8-8 8zm8-40c0 4.417969-3.582031 8-8 8h-176c-4.421875 0-8-3.582031-8-8 0-4.421875 3.578125-8 8-8h176c4.417969 0 8 3.578125 8 8zm0 0" fill="#006DF0"/></svg>
