<?xml version="1.0" encoding="iso-8859-1"?>
<!-- Generator: Adobe Illustrator 19.0.0, SVG Export Plug-In . SVG Version: 6.00 Build 0)  -->
<svg version="1.1" id="Capa_1" xmlns="http://www.w3.org/2000/svg" xmlns:xlink="http://www.w3.org/1999/xlink" x="0px" y="0px"
	 viewBox="0 0 512.629 512.629" style="enable-background:new 0 0 512.629 512.629;" xml:space="preserve">
<g>
	<path style="fill:#CFD8DC;" d="M379.2,407.953l-40-55.851c-1.775-2.489-4.533-4.097-7.573-4.416l-48.512-5.035
		c-5.75-0.591-10.925,3.505-11.669,9.237l-4.779,37.035c-0.347,2.674,0.331,5.38,1.899,7.573l41.877,58.645
		c6.055,8.409,15.793,13.381,26.155,13.355c5.762,0.016,11.419-1.541,16.363-4.501l16.64-9.984
		c15.155-9.092,20.07-28.748,10.978-43.903c-0.438-0.73-0.905-1.442-1.399-2.134L379.2,407.953z"/>
	<path style="fill:#CFD8DC;" d="M365.739,37.009l-12.501-12.501c-12.662-12.085-32.586-12.085-45.248,0l-17.067,17.067l-3.285-6.571
		C279.728,19.2,260.504,12.799,244.7,20.709c-1.71,0.856-3.34,1.863-4.87,3.01l-6.08,4.544
		c-13.586,10.19-16.844,29.219-7.424,43.349l8.341,12.587v18.155c0.001,4.896,3.335,9.162,8.085,10.347l85.333,21.333
		c0.844,0.214,1.711,0.322,2.581,0.32c5.891,0,10.667-4.776,10.667-10.667V106.62l24.448-24.448
		c12.492-12.496,12.492-32.752,0-45.248L365.739,37.009z"/>
</g>
<path style="fill:#F44336;" d="M462.72,145.553c-57.134-13.874-114.946-24.79-173.205-32.704c-4.491-0.675-8.918,1.568-11.029,5.589
	l-64,121.728c-1.691,3.21-1.635,7.06,0.149,10.219l64,112.939c1.897,3.338,5.441,5.399,9.28,5.397c106.005,0,224-82.667,224-138.667
	v-4.864C516.808,190.268,496.14,156.81,462.72,145.553z"/>
<path style="fill:#D32F2F;" d="M315.008,142.887C287.083,82.3,152.917,91.388,138.667,92.604C48.128,92.604,0,259.153,0,379.409
	c0,48.171,8.896,80.405,27.179,98.581c16.259,14.168,37.659,20.972,59.115,18.795H96c37.632,0,169.749-52.821,197.483-130.816
	c8.789-24.661,9.899-60.843-27.371-100.885C313.28,213.969,329.301,173.884,315.008,142.887z"/>
<g>
</g>
<g>
</g>
<g>
</g>
<g>
</g>
<g>
</g>
<g>
</g>
<g>
</g>
<g>
</g>
<g>
</g>
<g>
</g>
<g>
</g>
<g>
</g>
<g>
</g>
<g>
</g>
<g>
</g>
</svg>
