<?xml version="1.0" encoding="iso-8859-1"?>
<!-- Generator: Adobe Illustrator 19.0.0, SVG Export Plug-In . SVG Version: 6.00 Build 0)  -->
<svg version="1.1" id="Layer_1" xmlns="http://www.w3.org/2000/svg" xmlns:xlink="http://www.w3.org/1999/xlink" x="0px" y="0px"
	 viewBox="0 0 512 512" style="enable-background:new 0 0 512 512;" xml:space="preserve">
<path style="fill:#47CEAC;" d="M0,256.006C0,397.401,114.606,512.004,255.996,512C397.394,512.004,512,397.402,512,256.006
	C512.008,114.61,397.394,0,255.995,0C114.605,0,0,114.614,0,256.006z"/>
<path style="fill:#36BB9A;" d="M512,256.005c0.001-11.353-0.815-22.507-2.246-33.468c-0.285-0.326-0.546-0.667-0.878-0.969
	c-0.113-0.102-66.306-66.345-66.73-66.73c-0.113-0.102-0.282-0.179-0.397-0.281c-0.391-0.403-0.695-0.851-1.12-1.235
	c-13.706-12.463-46.433-16.342-97.369-11.522c-27.246,2.571-54.31,0.745-80.435-5.462c-35.223-8.379-79.862-16.946-112.594-8.818
	c-64.958,16.178-93.959,128.091-85.38,198.029c3.075,25.079,10.774,43.308,21.975,53.331c0.509,0.505,0.995,1.05,1.52,1.519
	c0.507,0.502,126.869,126.925,127.393,127.393c0.42,0.417,0.832,0.85,1.257,1.258c12.716,1.943,25.74,2.951,38.999,2.95
	C397.394,512.004,512,397.401,512,256.005z"/>
<path style="fill:#F4F6F9;" d="M440.629,153.323c-13.705-12.463-46.433-16.342-97.369-11.522
	c-27.245,2.571-54.31,0.745-80.434-5.463c-35.225-8.379-79.862-16.946-112.594-8.818c-64.958,16.178-93.959,128.09-85.38,198.029
	c4.848,39.527,21.108,62.203,44.619,62.203c62.301,0,143.292-25.254,186.135-95.742c56.25-2.634,153.015-51.763,153.015-120.965
	C448.619,164.203,445.857,158.073,440.629,153.323z M290.961,276.067l-0.022,0.003c-0.427-0.166-0.791-0.434-1.255-0.528
	c-8.29-1.674-9.449-6.468-9.593-8.183c-0.004-0.051-0.018-0.127-0.02-0.173c-0.091-4.35-3.649-7.854-8.027-7.854
	c-4.432,0-8.027,3.589-8.027,8.027c0,5.555,3.355,15.797,14.596,21.209C238.216,349.643,163.272,371.7,109.47,371.7
	c-21.143,0-27.303-36.823-28.687-48.11c-7.685-62.673,17.644-166.622,73.325-180.487c8.038-1.999,17.024-2.837,26.535-2.837
	c25.254,0,54.161,5.91,78.467,11.686c9.218,2.194,18.574,3.683,27.98,4.851c-4.027,4.497-6.163,9.333-6.849,12.589
	c-0.913,4.342,1.861,8.598,6.199,9.507c0.557,0.117,1.113,0.173,1.662,0.173c3.715,0,7.051-2.594,7.846-6.372
	c0.016-0.07,1.737-7.149,10.695-10.08c2.096-0.686,3.713-2.156,4.644-3.974c11.111,0.34,22.274,0.197,33.488-0.869
	c62.874-5.949,80.419,3.198,85.051,7.423c1.893,1.725,2.739,3.527,2.739,5.847C432.567,230.661,338.188,276.067,290.961,276.067z"/>
<g>
</g>
<g>
</g>
<g>
</g>
<g>
</g>
<g>
</g>
<g>
</g>
<g>
</g>
<g>
</g>
<g>
</g>
<g>
</g>
<g>
</g>
<g>
</g>
<g>
</g>
<g>
</g>
<g>
</g>
</svg>
